<?xml version="1.0" standalone="no"?>
<!DOCTYPE svg PUBLIC "-//W3C//DTD SVG 20010904//EN"
 "http://www.w3.org/TR/2001/REC-SVG-20010904/DTD/svg10.dtd">
<svg version="1.0" xmlns="http://www.w3.org/2000/svg"
 width="104.000000pt" height="105.000000pt" viewBox="0 0 104.000000 105.000000"
 preserveAspectRatio="xMidYMid meet">

<g transform="translate(0.000000,105.000000) scale(0.100000,-0.100000)"
fill="#000000" stroke="none">
<path d="M482 1008 c-7 -7 -12 -43 -12 -90 l0 -78 50 0 50 0 0 78 c0 47 -5 83
-12 90 -15 15 -61 15 -76 0z"/>
<path d="M166 874 c-28 -28 -18 -57 37 -112 l54 -53 37 37 37 37 -53 54 c-55
55 -84 65 -112 37z"/>
<path d="M762 836 l-56 -54 39 -36 39 -37 53 53 c54 53 67 90 41 116 -25 25
-59 13 -116 -42z"/>
<path d="M399 752 c-189 -98 -185 -363 6 -465 57 -30 173 -30 231 0 49 26 108
90 129 139 24 58 20 151 -11 212 -46 93 -127 141 -235 142 -54 0 -77 -5 -120
-28z"/>
<path d="M32 558 c-19 -19 -15 -66 7 -78 11 -5 51 -10 90 -10 l71 0 0 50 0 50
-78 0 c-47 0 -83 -5 -90 -12z"/>
<path d="M840 520 l0 -50 71 0 c85 0 109 11 109 48 0 44 -16 52 -102 52 l-78
0 0 -50z"/>
<path d="M202 277 c-56 -56 -64 -83 -32 -112 28 -25 57 -14 115 44 l49 51 -34
35 c-19 19 -37 35 -40 35 -3 0 -29 -24 -58 -53z"/>
<path d="M739 294 l-34 -35 57 -55 c58 -56 85 -65 112 -38 28 28 18 57 -37
112 -29 29 -55 52 -58 52 -3 0 -21 -16 -40 -36z"/>
<path d="M470 125 c0 -73 3 -86 19 -95 57 -30 81 0 81 101 l0 79 -50 0 -50 0
0 -85z"/>
</g>
</svg>
