<?xml version="1.0" standalone="no"?>
<!DOCTYPE svg PUBLIC "-//W3C//DTD SVG 20010904//EN"
 "http://www.w3.org/TR/2001/REC-SVG-20010904/DTD/svg10.dtd">
<svg version="1.0" xmlns="http://www.w3.org/2000/svg"
 width="104.000000pt" height="105.000000pt" viewBox="0 0 104.000000 105.000000"
 preserveAspectRatio="xMidYMid meet">

<g transform="translate(0.000000,105.000000) scale(0.100000,-0.100000)"
fill="#000000" stroke="none">
<path d="M482 1023 c-21 -8 -42 -59 -42 -102 0 -22 11 -90 24 -153 13 -62 27
-138 31 -169 l6 -56 -72 9 c-40 5 -112 18 -161 28 -48 11 -115 20 -148 20 -51
0 -65 -4 -85 -25 -32 -31 -32 -69 -1 -100 37 -37 78 -39 213 -11 68 14 152 28
188 32 l66 7 -7 -54 c-3 -30 -17 -107 -30 -173 -30 -148 -31 -195 -3 -230 33
-42 99 -35 124 15 21 39 19 67 -15 237 -16 83 -30 163 -30 178 0 27 0 27 58
21 32 -4 118 -18 190 -33 119 -24 135 -25 174 -13 54 17 73 51 57 98 -6 17
-19 36 -29 41 -30 16 -123 12 -218 -10 -49 -10 -121 -23 -161 -28 l-73 -9 7
61 c3 34 17 112 31 173 28 130 30 173 9 212 -19 38 -60 51 -103 34z"/>
</g>
</svg>
