<svg version="1.0" xmlns="http://www.w3.org/2000/svg" width="200" height="200" viewBox="0 0 150 150"><path d="m70.4 40.7.7 21.8-3.8-3.5c-2.1-1.9-8.2-7.7-13.6-12.9l-9.8-9.4-4 3.9-4.1 3.9 14.4 13.7L64.5 72H47c-9.6 0-19.9.3-22.7.6l-5.3.7V82h43.5L49.2 94.8l-13.4 12.7 4 3.9 4.1 3.9 13.3-12.7 13.3-12.7.6 5.8c.4 3.2.7 13.4.8 22.7l.1 16.8 3.1-.6c1.7-.3 4.3-.6 5.7-.6h2.5l-.7-22.7-.7-22.8 4.3 4c2.4 2.2 8.7 8.2 14.1 13.4l9.8 9.4 4-3.9 4.1-3.9-13.8-13.3L90.5 81h18.6c10.3 0 20.1-.3 21.8-.6 2.9-.6 3.1-.9 3.1-5V71H90.5l14.8-14.3 14.9-14.2-4-3.8-3.9-3.9-14.9 14.1L82.5 63l-.6-7.2c-.4-4-.7-13.9-.8-22.1L81 19H69.7l.7 21.7z"/></svg>