<?xml version="1.0" standalone="no"?>
<!DOCTYPE svg PUBLIC "-//W3C//DTD SVG 20010904//EN"
 "http://www.w3.org/TR/2001/REC-SVG-20010904/DTD/svg10.dtd">
<svg version="1.0" xmlns="http://www.w3.org/2000/svg"
 width="104.000000pt" height="105.000000pt" viewBox="0 0 104.000000 105.000000"
 preserveAspectRatio="xMidYMid meet">

<g transform="translate(0.000000,105.000000) scale(0.100000,-0.100000)"
fill="#000000" stroke="none">
<path d="M496 1034 c-13 -13 -16 -45 -16 -190 0 -105 -4 -174 -10 -174 -5 0
-65 54 -133 120 -121 117 -149 134 -175 108 -32 -32 -14 -61 108 -183 66 -66
120 -123 120 -127 0 -4 -81 -8 -180 -10 -195 -3 -203 -6 -198 -58 5 -42 38
-50 216 -50 89 0 162 -3 162 -8 0 -4 -54 -61 -120 -127 -96 -96 -120 -125
-120 -148 0 -31 37 -55 63 -41 8 5 69 60 135 122 66 61 123 112 126 112 3 0 6
-78 6 -173 0 -156 2 -176 18 -190 24 -22 35 -21 55 1 15 16 17 45 17 196 l0
178 126 -119 c69 -65 132 -122 140 -126 21 -12 64 18 64 46 0 15 -41 63 -127
149 l-128 128 170 0 c186 0 218 8 223 50 5 52 -3 55 -198 58 -99 2 -180 6
-180 10 0 4 54 61 120 127 78 77 120 127 120 141 0 23 -29 54 -49 54 -7 0 -72
-57 -145 -127 l-131 -126 -5 187 c-4 151 -8 189 -20 196 -22 14 -36 12 -54 -6z"/>
</g>
</svg>
