<?xml version="1.0" standalone="no"?>
<!DOCTYPE svg PUBLIC "-//W3C//DTD SVG 20010904//EN"
 "http://www.w3.org/TR/2001/REC-SVG-20010904/DTD/svg10.dtd">
<svg version="1.0" xmlns="http://www.w3.org/2000/svg"
 width="104.000000pt" height="105.000000pt" viewBox="0 0 104.000000 105.000000"
 preserveAspectRatio="xMidYMid meet">

<g transform="translate(0.000000,105.000000) scale(0.100000,-0.100000)"
fill="#000000" stroke="none">
<path d="M360 1017 c-177 -60 -299 -192 -345 -372 -82 -323 167 -639 505 -639
473 0 696 569 353 898 -128 123 -345 171 -513 113z m254 -72 c127 -27 233
-111 293 -232 32 -65 37 -86 41 -163 8 -157 -49 -281 -167 -370 -242 -182
-579 -72 -676 221 -28 82 -18 216 21 299 59 125 172 218 296 245 82 18 109 18
192 0z"/>
<path d="M440 827 c-136 -38 -231 -163 -231 -300 0 -230 228 -380 438 -287
105 46 183 163 183 275 0 76 -12 118 -49 177 -71 111 -219 170 -341 135z m178
-103 c202 -101 146 -406 -77 -422 -71 -5 -121 10 -167 51 -69 60 -94 146 -69
232 20 69 56 112 120 141 67 32 127 31 193 -2z"/>
</g>
</svg>
