<?xml version="1.0" standalone="no"?>
<!DOCTYPE svg PUBLIC "-//W3C//DTD SVG 20010904//EN"
 "http://www.w3.org/TR/2001/REC-SVG-20010904/DTD/svg10.dtd">
<svg version="1.0" xmlns="http://www.w3.org/2000/svg"
 width="104.000000pt" height="105.000000pt" viewBox="0 0 104.000000 105.000000"
 preserveAspectRatio="xMidYMid meet">

<g transform="translate(0.000000,105.000000) scale(0.100000,-0.100000)"
fill="#000000" stroke="none">
<path d="M588 1039 c-177 -24 -320 -123 -397 -276 -76 -151 -67 -374 20 -519
95 -158 294 -256 489 -240 103 9 120 14 120 40 0 20 -8 23 -76 33 -223 32
-364 206 -364 448 0 239 143 413 365 446 68 10 75 13 75 34 0 19 -7 24 -37 29
-85 12 -131 14 -195 5z m27 -52 c-105 -41 -189 -119 -239 -222 -56 -114 -68
-278 -29 -408 39 -133 141 -248 262 -292 32 -12 33 -14 11 -14 -37 -1 -134 25
-182 50 -91 46 -179 152 -219 265 -31 83 -31 235 0 318 56 155 167 258 321
300 30 8 66 15 80 15 24 -1 24 -1 -5 -12z"/>
</g>
</svg>
